<?xml version="1.0" encoding="utf-8"?>
<!-- Generator: Adobe Illustrator 26.0.0, SVG Export Plug-In . SVG Version: 6.00 Build 0)  -->
<svg version="1.1" id="Layer_1" xmlns="http://www.w3.org/2000/svg" xmlns:xlink="http://www.w3.org/1999/xlink" x="0px" y="0px"
	 viewBox="0 0 385.33 429.64" style="enable-background:new 0 0 385.33 429.64;" xml:space="preserve">
<g>
	<path d="M385.33,214.8c0,69.19,0,138.39,0,207.58c0,7.12-0.02,7.18-7.22,7.2c-15.84,0.03-31.69-0.18-47.53,0.07
		c-4.89,0.08-5.54-2.27-5.32-6.15c0.21-3.6-0.83-7.39,5.28-7.2c11.83,0.38,23.68-0.08,35.52,0.14c4.17,0.08,5.41-1.3,5.39-5.42
		c-0.15-28.18-0.08-56.36-0.08-84.53c0-102.04,0-204.08,0.01-306.12c0-7.19,0-7.21-6.94-7.2c-115.07,0-230.14,0.05-345.22-0.11
		c-5.29-0.01-6.4,1.74-6.39,6.5c0.15,102.71,0.22,205.41,0.15,308.12c0,4.81,1.44,6.23,6.24,6.2c27.35-0.19,54.7-0.09,82.05-0.01
		c2.16,0.01,5.23-1.14,6.12,1.83c0.95,3.16,0.82,6.66-0.22,9.85c-0.54,1.66-2.47,1.4-3.96,1.4c-33.02,0.03-66.04,0.02-99.06,0.09
		c-3,0.01-4.21-1.16-4.13-4.15c0.11-4.33-0.01-8.67-0.01-13C0,222.34,0.01,114.8,0.01,7.25c0-7.22,0-7.25,6.97-7.25
		C130.39,0,253.8,0,377.21,0.01c8.1,0,8.11,0.03,8.11,8.21C385.33,77.07,385.33,145.93,385.33,214.8z"/>
	<path d="M131.21,119.27c0.01,12.17,0.03,24.34,0,36.51c-0.02,6.01-0.21,5.79-6.79,6.17c-5.18,0.3-5.73-2.36-5.6-6.4
		c0.17-5.33-0.01-10.67,0.06-16c0.28-23.49-1.5-46.95-0.96-70.45c0.11-4.88,1.69-6.12,6.38-6.07c22.68,0.22,45.36-0.21,68.03,0.18
		c24.17,0.41,43.13,11.46,55.84,31.61c19.61,31.09,12.81,68-15.73,91.35c-0.77,0.63-1.46,1.38-2.26,1.97
		c-2.19,1.64-1.62,2.46,0.71,3.18c6.55,2.02,12.77,4.76,18.67,8.31c34.51,20.82,48.06,65.55,30.4,101.8
		c-14.6,29.95-38.95,45.07-72.22,45.52c-18.84,0.25-37.68,0.06-56.53-0.02c-2.17-0.01-5.2,0.97-6.04-2.04
		c-0.88-3.18-1.2-6.73,0.22-9.79c0.96-2.06,3.59-1.27,5.52-1.27c19.34-0.04,38.69-0.02,58.03-0.03
		c32.04-0.01,59.89-24.26,64.4-56.05c4.66-32.86-13.84-62.8-45.39-73.42c-9.18-3.09-18.69-2.91-28.2-2.8
		c-3.06,0.04-6.43,0.81-6.54-4.36c-0.2-9.23-0.18-9.69,5.68-10.54c24.38-3.55,44.53-25.96,46.4-50.65
		c2.45-32.46-24.86-60.35-56.45-59.85c-17.5,0.28-35.02,0.19-52.52,0.01c-4-0.04-5.2,1.26-5.15,5.14
		C131.32,93.93,131.2,106.6,131.21,119.27z"/>
	<path d="M118.54,314.54c0-35.85-0.01-71.7,0.01-107.54c0-6.21,4.19-8.89,10.07-6.59c2.05,0.8,1.93,2.51,1.94,4.16
		c0.04,5.5,0.03,11,0.03,16.51c0.01,62.86,0.02,125.72,0.03,188.58c0,7.2,0.02,7.22,7.11,7.22c47.53,0,95.06,0.01,142.59-0.03
		c3.83,0,6.85,0.01,6.54,5.42c-0.38,6.47-0.18,6.68-6.22,6.68c-51.53,0.01-103.07,0.02-154.6,0.02c-7.46,0-7.48-0.02-7.48-7.36
		c-0.01-35.68,0-71.36,0-107.04C118.56,314.54,118.55,314.54,118.54,314.54z"/>
</g>
</svg>
